<svg width="12" height="13" viewBox="0 0 12 13" fill="none" xmlns="http://www.w3.org/2000/svg">
<path fill-rule="evenodd" clip-rule="evenodd" d="M0.967515 9.05994C1.32097 9.05994 1.60751 9.34646 1.60751 9.69994V10.9799C1.60751 11.1497 1.67493 11.3124 1.79498 11.4325C1.91499 11.5525 2.07777 11.6199 2.24751 11.6199H9.9275C10.0972 11.6199 10.26 11.5525 10.38 11.4325C10.5001 11.3124 10.5675 11.1497 10.5675 10.9799V9.69994C10.5675 9.34646 10.854 9.05994 11.2075 9.05994C11.561 9.05994 11.8475 9.34646 11.8475 9.69994V10.9799C11.8475 11.4891 11.6453 11.9775 11.2851 12.3376C10.9251 12.6976 10.4367 12.8999 9.9275 12.8999H2.24751C1.73831 12.8999 1.24993 12.6977 0.889857 12.3376C0.529806 11.9775 0.327515 11.4891 0.327515 10.9799V9.69994C0.327515 9.34646 0.614049 9.05994 0.967515 9.05994Z" fill="#00D390"/>
<path fill-rule="evenodd" clip-rule="evenodd" d="M2.43501 5.40743C2.68495 5.15749 3.09017 5.15749 3.34011 5.40743L6.08755 8.15488L8.835 5.40743C9.08492 5.15749 9.49017 5.15749 9.74009 5.40743C9.99007 5.65735 9.99007 6.06259 9.74009 6.31251L6.54009 9.51251C6.29017 9.76243 5.88492 9.76243 5.635 9.51251L2.43501 6.31251C2.18508 6.06259 2.18508 5.65735 2.43501 5.40743Z" fill="#00D390"/>
<path fill-rule="evenodd" clip-rule="evenodd" d="M6.08751 0.73999C6.44098 0.73999 6.72751 1.02653 6.72751 1.37999V9.05999C6.72751 9.41346 6.44098 9.69999 6.08751 9.69999C5.73404 9.69999 5.44751 9.41346 5.44751 9.05999V1.37999C5.44751 1.02653 5.73404 0.73999 6.08751 0.73999Z" fill="#00D390"/>
</svg>
