<svg width="16" height="17" viewBox="0 0 16 17" fill="none" xmlns="http://www.w3.org/2000/svg">
<path d="M15.9583 6.63748C15.8536 6.31349 15.5662 6.08339 15.2262 6.05275L10.6082 5.63342L8.78208 1.35927C8.64744 1.04603 8.34079 0.843262 8.00008 0.843262C7.65938 0.843262 7.35273 1.04603 7.21808 1.36L5.39198 5.63342L0.773211 6.05275C0.433847 6.08412 0.147219 6.31349 0.0418692 6.63748C-0.0634802 6.96146 0.0338123 7.31682 0.290533 7.54082L3.78122 10.6022L2.7519 15.1364C2.67658 15.4697 2.80598 15.8143 3.0826 16.0143C3.23128 16.1217 3.40524 16.1764 3.58066 16.1764C3.73191 16.1764 3.88193 16.1356 4.01658 16.0551L8.00008 13.6743L11.9821 16.0551C12.2735 16.2304 12.6408 16.2144 12.9168 16.0143C13.1936 15.8137 13.3229 15.469 13.2475 15.1364L12.2182 10.6022L15.7089 7.54143C15.9656 7.31682 16.0636 6.96207 15.9583 6.63748Z" fill="#FF8811"/>
</svg>
